<?xml version="1.0" encoding="utf-8"?>
<!-- Generator: Adobe Illustrator 15.1.0, SVG Export Plug-In . SVG Version: 6.00 Build 0)  -->
<!DOCTYPE svg PUBLIC "-//W3C//DTD SVG 1.1//EN" "http://www.w3.org/Graphics/SVG/1.1/DTD/svg11.dtd">
<svg version="1.1" id="dial" xmlns="http://www.w3.org/2000/svg" xmlns:xlink="http://www.w3.org/1999/xlink" x="0px" y="0px"
	 width="583.844px" height="700px" viewBox="0 0 583.844 700" enable-background="new 0 0 583.844 700" xml:space="preserve">

<g id="dialc">
<path display="none" fill="#2B4A54" d="M282,80.569V611.43c146.319-0.328,264.832-119.035,264.832-265.432
	C546.832,199.605,428.319,80.897,282,80.569z"/>
<path fill="#2B4A54" d="M280.378,61.653c-0.079,0-0.378,0.003-0.378,0.003v29.408c139,0,250.923,112.342,250.923,250.923
	C530.923,480.567,419,592.911,280,592.911v29.876c0,0,0.299,0.003,0.378,0.003c154.951,0,280.568-125.613,280.568-280.569
	C560.946,187.268,435.329,61.653,280.378,61.653z"/>
<path fill="#2B4A54" d="M422.686,342c0,0,0.002,0.111,0.002,0.17c0,78.938-63.992,142.927-142.931,142.927
	c-78.939,0-142.932-63.986-142.932-142.925c0-0.059,0.002-0.171,0.002-0.171h-29.649c0,95,77.502,173.105,173.106,173.105
	c95.604,0,173.104-78.105,173.104-173.105L422.686,342L422.686,342z"/>
<path fill="#97C6C1" d="M280,91.064C142,91.064,29.36,203,29.36,342h77.818c0-96,77.822-173.119,172.822-173.119V91.064z"/>
<path fill="#76B2AC" d="M280,91.064v77.817c96,0,173.389,77.119,173.389,173.119h77.818C531.207,203,419,91.064,280,91.064z"/>
<path fill="#C64542" d="M453.389,342c0,95-77.389,173.093-173.389,173.093v77.818C419,592.911,531.207,481,531.207,342H453.389z"/>
<path fill="#CC5D5A" d="M280,515.093C185,515.093,107.178,437,107.178,342H29.36C29.36,481,142,592.91,280,592.911V515.093z"/>
<path fill="#FFFFFF" d="M453.389,342c0-96-77.502-173.105-173.104-173.105C184.68,168.895,107.178,246,107.178,342h29.649
	c0,0-0.002-0.058-0.002-0.117c0-78.938,63.994-142.868,142.932-142.868c78.938,0,142.933,63.954,142.933,142.892
	c0,0.058-0.002,0.093-0.002,0.093H453.389L453.389,342z"/>
<path fill="none" stroke="#2B4A54" stroke-miterlimit="10" d="M280.5,87.364"/>
<path fill="none" stroke="#2B4A54" stroke-miterlimit="10" d="M280.5,87.364c-0.19,0-0.378-0.007-0.568-0.007
	c-140.628,0-254.629,114.001-254.629,254.629c0,140.628,114.001,254.63,254.629,254.63c0.19,0,0.378-0.007,0.568-0.007"/>
<circle fill="none" stroke="#FFFFFF" stroke-miterlimit="10" cx="280.637" cy="342.517" r="182.105"/>
</g>
<polygon fill="#2B4A54" id="dial-tip" points="545.692,309.959 576.857,342.049 544.848,373.298 "/>
</svg>
